<svg width="368" height="60" viewBox="0 0 368 60" fill="none" xmlns="http://www.w3.org/2000/svg">
<path d="M43.843 40.9817H57.3913C55.425 46.9873 51.9916 51.6577 47.0828 54.9929C42.1711 58.3338 36.4067 60 29.7896 60C27.5092 60 25.3184 59.7897 23.2202 59.3689C23.08 59.3408 22.9425 59.3127 22.8051 59.2819C19.8934 58.6564 17.1585 57.6185 14.6003 56.171C10.0842 53.6213 6.52178 50.0701 3.91304 45.5259C1.30444 40.9817 0 35.8234 0 30.042C0 24.2665 1.30437 19.0911 3.91304 14.5161C6.52178 9.94681 10.0841 6.38435 14.6003 3.82898C17.1585 2.38425 19.8934 1.34647 22.8051 0.72097C22.9481 0.690149 23.0912 0.659192 23.2342 0.631105C25.3296 0.210348 27.5119 0 29.7896 0C36.3534 0 42.1037 1.68303 47.0406 5.04909C51.9746 8.41515 55.4249 13.0744 57.3912 19.0183H43.8428C42.4964 16.2132 40.603 14.1094 38.1626 12.7069C37.0491 12.0673 35.8569 11.5737 34.5862 11.2286C33.0715 10.8106 31.4446 10.6031 29.7054 10.6031C27.2005 10.6031 24.9004 11.0295 22.805 11.8879C22.0336 12.1992 21.2903 12.5723 20.575 13.0014C17.9102 14.6003 15.8317 16.8612 14.3478 19.7755C12.8611 22.6956 12.1177 26.1178 12.1177 30.042C12.1177 33.9131 12.8611 37.3212 14.3478 40.2665C15.8317 43.2118 17.9102 45.4839 20.575 47.0827C21.2903 47.5119 22.0336 47.885 22.805 48.1963C24.9004 49.0546 27.2005 49.4811 29.7054 49.4811C31.4446 49.4811 33.0715 49.2707 34.5862 48.8443C35.8569 48.4908 37.0491 47.9887 38.1626 47.3351C40.6031 45.9047 42.4966 43.7897 43.843 40.9817Z" fill="#FF3A3D"/>
<path d="M59.7471 0.631165V59.3689C63.0011 59.3689 65.9463 58.0504 68.0781 55.9186C70.21 53.7867 71.5284 50.8414 71.5284 47.5877V12.4124C71.5284 5.90474 66.2548 0.631165 59.7471 0.631165ZM34.5859 13.5736C33.0964 13.0912 31.464 12.8472 29.7051 12.8472C27.1666 12.8472 24.8496 13.3521 22.8047 14.345V45.7391C24.8496 46.735 27.1666 47.237 29.7051 47.237C31.4639 47.237 33.0964 46.9901 34.5859 46.4965V34.3759H57.5031V24.7826H34.5859V13.5736Z" fill="#0F0D0D"/>
<path d="M101.872 30.2C101.872 28.2773 102.292 26.56 103.132 25.048C103.972 23.5173 105.12 22.332 106.576 21.492C108.032 20.6333 109.656 20.204 111.448 20.204C113.632 20.204 115.499 20.7267 117.048 21.772C118.616 22.7987 119.755 24.2547 120.464 26.14H118.168C117.608 24.8147 116.75 23.7787 115.592 23.032C114.454 22.2853 113.072 21.912 111.448 21.912C110.011 21.912 108.714 22.248 107.556 22.92C106.418 23.592 105.522 24.5627 104.868 25.832C104.215 27.0827 103.888 28.5387 103.888 30.2C103.888 31.8613 104.215 33.3173 104.868 34.568C105.522 35.8187 106.418 36.78 107.556 37.452C108.714 38.124 110.011 38.46 111.448 38.46C113.072 38.46 114.454 38.096 115.592 37.368C116.75 36.6213 117.608 35.5947 118.168 34.288H120.464C119.755 36.1547 118.616 37.6013 117.048 38.628C115.48 39.6547 113.614 40.168 111.448 40.168C109.656 40.168 108.032 39.748 106.576 38.908C105.12 38.0493 103.972 36.864 103.132 35.352C102.292 33.84 101.872 32.1227 101.872 30.2ZM138.902 20.428V40H136.942V30.844H126.33V40H124.37V20.428H126.33V29.22H136.942V20.428H138.902ZM154.714 35.352H145.81L144.102 40H142.03L149.17 20.68H151.382L158.494 40H156.422L154.714 35.352ZM154.126 33.728L150.262 23.144L146.398 33.728H154.126ZM176.395 40H174.435L163.599 23.536V40H161.639V20.428H163.599L174.435 36.864V20.428H176.395V40ZM199.97 20.428V22.052H194.538V40H192.578V22.052H187.118V20.428H199.97ZM213.481 40L208.637 31.824H205.025V40H203.065V20.428H208.945C211.129 20.428 212.781 20.9507 213.901 21.996C215.04 23.0413 215.609 24.4133 215.609 26.112C215.609 27.5307 215.199 28.744 214.377 29.752C213.575 30.7413 212.38 31.3853 210.793 31.684L215.833 40H213.481ZM205.025 30.228H208.973C210.504 30.228 211.652 29.8547 212.417 29.108C213.201 28.3613 213.593 27.3627 213.593 26.112C213.593 24.824 213.22 23.8347 212.473 23.144C211.727 22.4347 210.551 22.08 208.945 22.08H205.025V30.228ZM230.839 35.352H221.935L220.227 40H218.155L225.295 20.68H227.507L234.619 40H232.547L230.839 35.352ZM230.251 33.728L226.387 23.144L222.523 33.728H230.251ZM243.56 20.428C245.726 20.428 247.583 20.82 249.132 21.604C250.682 22.388 251.867 23.5173 252.688 24.992C253.51 26.4667 253.92 28.2213 253.92 30.256C253.92 32.272 253.51 34.0173 252.688 35.492C251.867 36.948 250.682 38.068 249.132 38.852C247.583 39.6173 245.726 40 243.56 40H237.764V20.428H243.56ZM243.56 38.376C246.286 38.376 248.358 37.6667 249.776 36.248C251.214 34.8107 251.932 32.8133 251.932 30.256C251.932 27.68 251.214 25.6733 249.776 24.236C248.358 22.78 246.286 22.052 243.56 22.052H239.724V38.376H243.56ZM259.494 22.024V29.332H266.914V30.956H259.494V38.376H267.754V40H257.534V20.4H267.754V22.024H259.494ZM282.032 40L277.188 31.824H273.576V40H271.616V20.428H277.496C279.68 20.428 281.332 20.9507 282.452 21.996C283.591 23.0413 284.16 24.4133 284.16 26.112C284.16 27.5307 283.749 28.744 282.928 29.752C282.125 30.7413 280.931 31.3853 279.344 31.684L284.384 40H282.032ZM273.576 30.228H277.524C279.055 30.228 280.203 29.8547 280.968 29.108C281.752 28.3613 282.144 27.3627 282.144 26.112C282.144 24.824 281.771 23.8347 281.024 23.144C280.277 22.4347 279.101 22.08 277.496 22.08H273.576V30.228ZM293.986 40.196C292.698 40.196 291.559 39.972 290.57 39.524C289.599 39.076 288.834 38.4507 288.274 37.648C287.714 36.8453 287.415 35.9493 287.378 34.96H289.45C289.543 35.912 289.963 36.752 290.71 37.48C291.456 38.1893 292.548 38.544 293.986 38.544C295.311 38.544 296.356 38.208 297.122 37.536C297.906 36.8453 298.298 35.9773 298.298 34.932C298.298 34.092 298.083 33.42 297.654 32.916C297.224 32.3933 296.692 32.0107 296.058 31.768C295.423 31.5067 294.546 31.2267 293.426 30.928C292.119 30.5733 291.083 30.228 290.318 29.892C289.552 29.556 288.899 29.0333 288.358 28.324C287.816 27.6147 287.546 26.6533 287.546 25.44C287.546 24.432 287.807 23.536 288.33 22.752C288.852 21.9493 289.59 21.324 290.542 20.876C291.494 20.428 292.586 20.204 293.818 20.204C295.628 20.204 297.084 20.652 298.186 21.548C299.306 22.4253 299.95 23.564 300.118 24.964H297.99C297.859 24.1613 297.42 23.452 296.674 22.836C295.927 22.2013 294.919 21.884 293.65 21.884C292.474 21.884 291.494 22.2013 290.71 22.836C289.926 23.452 289.534 24.3013 289.534 25.384C289.534 26.2053 289.748 26.868 290.178 27.372C290.607 27.876 291.139 28.2587 291.774 28.52C292.427 28.7813 293.304 29.0613 294.406 29.36C295.675 29.7147 296.702 30.0693 297.486 30.424C298.27 30.76 298.932 31.2827 299.474 31.992C300.015 32.7013 300.286 33.6533 300.286 34.848C300.286 35.7627 300.043 36.6307 299.558 37.452C299.072 38.2733 298.354 38.936 297.402 39.44C296.45 39.944 295.311 40.196 293.986 40.196Z" fill="#0F0D0D"/>
<path d="M327.003 20.26V40H321.515V32.076H314.823V40H309.335V20.26H314.823V27.68H321.515V20.26H327.003ZM335.519 20.26V31.712C335.519 32.776 335.762 33.5973 336.247 34.176C336.751 34.7547 337.507 35.044 338.515 35.044C339.523 35.044 340.279 34.7547 340.783 34.176C341.306 33.5787 341.567 32.7573 341.567 31.712V20.26H347.055V31.712C347.055 33.5227 346.673 35.072 345.907 36.36C345.142 37.6293 344.097 38.5907 342.771 39.244C341.465 39.8787 340.009 40.196 338.403 40.196C336.798 40.196 335.361 39.8787 334.091 39.244C332.841 38.5907 331.851 37.6293 331.123 36.36C330.414 35.0907 330.059 33.5413 330.059 31.712V20.26H335.519ZM362.677 29.864C363.834 30.1253 364.749 30.704 365.421 31.6C366.111 32.4773 366.457 33.4853 366.457 34.624C366.457 36.304 365.878 37.62 364.721 38.572C363.563 39.524 361.939 40 359.849 40H350.077V20.26H359.541C361.557 20.26 363.134 20.708 364.273 21.604C365.43 22.5 366.009 23.76 366.009 25.384C366.009 26.5413 365.701 27.512 365.085 28.296C364.487 29.0613 363.685 29.584 362.677 29.864ZM355.565 28.1H358.337C359.718 28.1 360.409 27.5307 360.409 26.392C360.409 25.216 359.718 24.628 358.337 24.628H355.565V28.1ZM358.757 35.576C360.138 35.576 360.829 34.9973 360.829 33.84C360.829 33.2427 360.642 32.7853 360.269 32.468C359.914 32.1507 359.401 31.992 358.729 31.992H355.565V35.576H358.757Z" fill="#FF3A3D"/>
</svg>
