<svg width="320" height="153" viewBox="0 0 320 153" fill="none" xmlns="http://www.w3.org/2000/svg">
<path d="M175.065 76.4508H200.331C196.664 87.6501 190.261 96.3593 181.107 102.579C171.948 108.809 161.198 111.916 148.859 111.916C144.606 111.916 140.521 111.524 136.608 110.739C136.346 110.687 136.09 110.634 135.834 110.577C130.404 109.411 125.304 107.475 120.533 104.776C112.112 100.021 105.469 93.3987 100.604 84.9248C95.7392 76.4508 93.3066 66.8314 93.3066 56.0504C93.3066 45.2802 95.739 35.6291 100.604 27.0976C105.469 18.5768 112.112 11.9335 120.533 7.16827C125.304 4.47412 130.404 2.53887 135.834 1.37244C136.1 1.31496 136.367 1.25723 136.634 1.20486C140.542 0.420226 144.611 0.0279694 148.859 0.0279694C161.099 0.0279694 171.822 3.16649 181.028 9.44353C190.23 15.7206 196.664 24.4092 200.33 35.4933H175.065C172.554 30.2624 169.024 26.3392 164.473 23.7239C162.396 22.531 160.173 21.6106 157.803 20.9671C154.979 20.1876 151.945 19.8007 148.702 19.8007C144.03 19.8007 139.741 20.5958 135.834 22.1965C134.395 22.7771 133.009 23.4728 131.675 24.273C126.706 27.2546 122.83 31.4707 120.063 36.9054C117.29 42.3508 115.904 48.7326 115.904 56.0504C115.904 63.2692 117.29 69.6246 120.063 75.117C122.83 80.6094 126.706 84.8464 131.675 87.8278C133.009 88.6283 134.395 89.3241 135.834 89.9045C139.741 91.5052 144.03 92.3003 148.702 92.3003C151.945 92.3003 154.979 91.9081 157.803 91.1129C160.173 90.4537 162.396 89.5174 164.473 88.2986C169.024 85.6311 172.555 81.687 175.065 76.4508Z" fill="#FF3A3D"/>
<path d="M204.724 1.20497V110.739C210.792 110.739 216.284 108.281 220.259 104.305C224.235 100.33 226.693 94.8371 226.693 88.7696V23.1746C226.693 11.0392 216.859 1.20497 204.724 1.20497ZM157.803 25.3401C155.025 24.4405 151.981 23.9855 148.701 23.9855C143.967 23.9855 139.646 24.927 135.833 26.7786V85.3223C139.646 87.1794 143.967 88.1157 148.701 88.1157C151.981 88.1157 155.025 87.6551 157.803 86.7347V64.1322H200.539V46.2426H157.803V25.3401Z" fill="#ffffff"/>
<path d="M1.61119 140.392C1.61119 138.087 2.11469 136.028 3.12168 134.215C4.12867 132.38 5.5049 130.959 7.25035 129.952C8.9958 128.923 10.9427 128.408 13.0909 128.408C15.7091 128.408 17.9469 129.035 19.8042 130.288C21.6839 131.519 23.049 133.264 23.8993 135.524H21.1469C20.4755 133.936 19.4462 132.694 18.0587 131.799C16.6937 130.903 15.0378 130.456 13.0909 130.456C11.3678 130.456 9.81259 130.859 8.42518 131.664C7.06014 132.47 5.98601 133.634 5.2028 135.155C4.41958 136.655 4.02797 138.4 4.02797 140.392C4.02797 142.383 4.41958 144.129 5.2028 145.628C5.98601 147.127 7.06014 148.28 8.42518 149.085C9.81259 149.891 11.3678 150.294 13.0909 150.294C15.0378 150.294 16.6937 149.857 18.0587 148.985C19.4462 148.09 20.4755 146.859 21.1469 145.292H23.8993C23.049 147.53 21.6839 149.264 19.8042 150.495C17.9245 151.726 15.6867 152.341 13.0909 152.341C10.9427 152.341 8.9958 151.838 7.25035 150.831C5.5049 149.801 4.12867 148.38 3.12168 146.568C2.11469 144.755 1.61119 142.697 1.61119 140.392ZM46.0023 128.677V152.14H43.6526V141.164H30.9309V152.14H28.5813V128.677H30.9309V139.217H43.6526V128.677H46.0023ZM64.9576 146.568H54.2835L52.2359 152.14H49.752L58.3115 128.979H60.9632L69.4891 152.14H67.0052L64.9576 146.568ZM64.2527 144.621L59.6205 131.933L54.9884 144.621H64.2527ZM90.9496 152.14H88.5999L75.6097 132.403V152.14H73.2601V128.677H75.6097L88.5999 148.38V128.677H90.9496V152.14ZM119.211 128.677V130.624H112.699V152.14H110.35V130.624H103.804V128.677H119.211ZM135.408 152.14L129.601 142.338H125.271V152.14H122.921V128.677H129.97C132.588 128.677 134.569 129.303 135.912 130.557C137.277 131.81 137.959 133.455 137.959 135.491C137.959 137.192 137.467 138.646 136.482 139.855C135.52 141.041 134.088 141.813 132.186 142.171L138.228 152.14H135.408ZM125.271 140.425H130.004C131.839 140.425 133.215 139.978 134.133 139.083C135.072 138.187 135.542 136.99 135.542 135.491C135.542 133.947 135.095 132.761 134.2 131.933C133.305 131.083 131.895 130.657 129.97 130.657H125.271V140.425ZM156.216 146.568H145.542L143.495 152.14H141.011L149.57 128.979H152.222L160.748 152.14H158.264L156.216 146.568ZM155.511 144.621L150.879 131.933L146.247 144.621H155.511ZM171.467 128.677C174.063 128.677 176.289 129.147 178.147 130.087C180.004 131.027 181.425 132.38 182.41 134.148C183.394 135.916 183.887 138.02 183.887 140.459C183.887 142.876 183.394 144.968 182.41 146.736C181.425 148.481 180.004 149.824 178.147 150.764C176.289 151.681 174.063 152.14 171.467 152.14H164.519V128.677H171.467ZM171.467 150.193C174.734 150.193 177.218 149.343 178.919 147.642C180.642 145.919 181.503 143.524 181.503 140.459C181.503 137.371 180.642 134.965 178.919 133.242C177.218 131.497 174.734 130.624 171.467 130.624H166.868V150.193H171.467ZM190.568 130.59V139.351H199.463V141.298H190.568V150.193H200.47V152.14H188.219V128.643H200.47V130.59H190.568ZM217.587 152.14L211.78 142.338H207.45V152.14H205.1V128.677H212.149C214.767 128.677 216.748 129.303 218.09 130.557C219.455 131.81 220.138 133.455 220.138 135.491C220.138 137.192 219.646 138.646 218.661 139.855C217.699 141.041 216.267 141.813 214.364 142.171L220.406 152.14H217.587ZM207.45 140.425H212.183C214.018 140.425 215.394 139.978 216.311 139.083C217.251 138.187 217.721 136.99 217.721 135.491C217.721 133.947 217.274 132.761 216.378 131.933C215.483 131.083 214.074 130.657 212.149 130.657H207.45V140.425ZM231.917 152.375C230.373 152.375 229.008 152.106 227.822 151.569C226.658 151.032 225.741 150.283 225.069 149.32C224.398 148.358 224.04 147.284 223.995 146.098H226.479C226.591 147.239 227.094 148.246 227.99 149.119C228.885 149.969 230.194 150.394 231.917 150.394C233.506 150.394 234.759 149.992 235.676 149.186C236.616 148.358 237.086 147.317 237.086 146.064C237.086 145.057 236.829 144.252 236.314 143.648C235.799 143.021 235.162 142.562 234.401 142.271C233.64 141.958 232.588 141.622 231.245 141.264C229.679 140.839 228.437 140.425 227.52 140.022C226.602 139.62 225.819 138.993 225.17 138.143C224.521 137.292 224.197 136.14 224.197 134.685C224.197 133.477 224.51 132.403 225.136 131.463C225.763 130.501 226.647 129.751 227.788 129.214C228.929 128.677 230.238 128.408 231.715 128.408C233.886 128.408 235.631 128.945 236.952 130.02C238.294 131.071 239.066 132.436 239.268 134.115H236.717C236.56 133.152 236.034 132.302 235.139 131.564C234.244 130.803 233.036 130.422 231.514 130.422C230.104 130.422 228.929 130.803 227.99 131.564C227.05 132.302 226.58 133.32 226.58 134.618C226.58 135.603 226.837 136.397 227.352 137.001C227.866 137.606 228.504 138.064 229.265 138.378C230.048 138.691 231.1 139.027 232.42 139.385C233.942 139.81 235.173 140.235 236.113 140.66C237.052 141.063 237.847 141.69 238.496 142.54C239.145 143.39 239.469 144.531 239.469 145.964C239.469 147.06 239.178 148.101 238.597 149.085C238.015 150.07 237.153 150.864 236.012 151.469C234.871 152.073 233.506 152.375 231.917 152.375Z" fill="#ffffff"/>
<path d="M271.498 128.476V152.14H264.919V142.641H256.896V152.14H250.317V128.476H256.896V137.371H264.919V128.476H271.498ZM281.707 128.476V142.204C281.707 143.48 281.998 144.464 282.58 145.158C283.184 145.852 284.091 146.199 285.299 146.199C286.507 146.199 287.414 145.852 288.018 145.158C288.644 144.442 288.958 143.457 288.958 142.204V128.476H295.537V142.204C295.537 144.375 295.078 146.232 294.16 147.776C293.243 149.298 291.99 150.45 290.401 151.234C288.835 151.994 287.089 152.375 285.165 152.375C283.24 152.375 281.517 151.994 279.995 151.234C278.496 150.45 277.31 149.298 276.437 147.776C275.587 146.255 275.162 144.397 275.162 142.204V128.476H281.707ZM314.264 139.989C315.651 140.302 316.748 140.996 317.553 142.07C318.381 143.122 318.795 144.33 318.795 145.695C318.795 147.709 318.102 149.287 316.714 150.428C315.327 151.569 313.38 152.14 310.874 152.14H299.159V128.476H310.504C312.921 128.476 314.812 129.013 316.177 130.087C317.565 131.161 318.258 132.671 318.258 134.618C318.258 136.006 317.889 137.169 317.151 138.109C316.435 139.027 315.472 139.653 314.264 139.989ZM305.738 137.874H309.061C310.717 137.874 311.545 137.192 311.545 135.827C311.545 134.417 310.717 133.712 309.061 133.712H305.738V137.874ZM309.565 146.836C311.221 146.836 312.048 146.143 312.048 144.755C312.048 144.039 311.825 143.491 311.377 143.11C310.952 142.73 310.337 142.54 309.531 142.54H305.738V146.836H309.565Z" fill="#FF3A3D"/>
</svg>
